<?xml version="1.0" encoding="UTF-8"?>
<svg xmlns="http://www.w3.org/2000/svg" xmlns:xlink="http://www.w3.org/1999/xlink" viewBox="0 0 40 40" width="40px" height="40px">
<g id="surface211317691">
<path style=" stroke:none;fill-rule:nonzero;fill:rgb(10.196079%,73.725492%,61.176473%);fill-opacity:1;" d="M 1.5 17.5 L 38.5 17.5 L 38.5 22.5 L 1.5 22.5 Z M 1.5 17.5 "/>
<path style=" stroke:none;fill-rule:nonzero;fill:rgb(27.843139%,53.333336%,78.039217%);fill-opacity:1;" d="M 38 18 L 38 22 L 2 22 L 2 18 L 38 18 M 39 17 L 1 17 L 1 23 L 39 23 Z M 39 17 "/>
<path style=" stroke:none;fill-rule:nonzero;fill:rgb(10.196079%,73.725492%,61.176473%);fill-opacity:1;" d="M 1.5 7.5 L 38.5 7.5 L 38.5 12.5 L 1.5 12.5 Z M 1.5 7.5 "/>
<path style=" stroke:none;fill-rule:nonzero;fill:rgb(27.843139%,53.333336%,78.039217%);fill-opacity:1;" d="M 38 8 L 38 12 L 2 12 L 2 8 L 38 8 M 39 7 L 1 7 L 1 13 L 39 13 Z M 39 7 "/>
<path style=" stroke:none;fill-rule:nonzero;fill:rgb(10.196079%,73.725492%,61.176473%);fill-opacity:1;" d="M 1.5 27.5 L 38.5 27.5 L 38.5 32.5 L 1.5 32.5 Z M 1.5 27.5 "/>
<path style=" stroke:none;fill-rule:nonzero;fill:rgb(27.843139%,53.333336%,78.039217%);fill-opacity:1;" d="M 38 28 L 38 32 L 2 32 L 2 28 L 38 28 M 39 27 L 1 27 L 1 33 L 39 33 Z M 39 27 "/>
</g>
</svg>
