<svg width="16" height="16" viewBox="0 0 16 16" fill="none" xmlns="http://www.w3.org/2000/svg">
<path d="M8.00179 3.7657C5.73162 3.7657 3.9005 5.5035 3.9005 7.65796C3.9005 9.81242 5.73162 11.5502 8.00179 11.5502C10.2719 11.5502 12.1031 9.81242 12.1031 7.65796C12.1031 5.5035 10.2719 3.7657 8.00179 3.7657ZM8.00179 10.1884C6.53475 10.1884 5.33542 9.05362 5.33542 7.65796C5.33542 6.2623 6.53118 5.12748 8.00179 5.12748C9.47239 5.12748 10.6682 6.2623 10.6682 7.65796C10.6682 9.05362 9.46882 10.1884 8.00179 10.1884ZM13.2274 3.60649C13.2274 4.11123 12.7991 4.51434 12.2708 4.51434C11.739 4.51434 11.3142 4.10784 11.3142 3.60649C11.3142 3.10514 11.7426 2.69864 12.2708 2.69864C12.7991 2.69864 13.2274 3.10514 13.2274 3.60649ZM15.9438 4.52789C15.8831 3.31178 15.5904 2.23455 14.6516 1.34702C13.7165 0.459488 12.5814 0.181712 11.2999 0.120736C9.97925 0.0495984 6.02075 0.0495984 4.70006 0.120736C3.4222 0.178324 2.28712 0.4561 1.34835 1.34363C0.409593 2.23116 0.120468 3.30839 0.0562186 4.52451C-0.0187395 5.77789 -0.0187395 9.53464 0.0562186 10.788C0.116899 12.0041 0.409593 13.0814 1.34835 13.9689C2.28712 14.8564 3.41863 15.1342 4.70006 15.1952C6.02075 15.2663 9.97925 15.2663 11.2999 15.1952C12.5814 15.1376 13.7165 14.8598 14.6516 13.9689C15.5868 13.0814 15.8795 12.0041 15.9438 10.788C16.0187 9.53464 16.0187 5.78128 15.9438 4.52789ZM14.2376 12.1329C13.9592 12.7968 13.4202 13.3083 12.717 13.5759C11.664 13.9723 9.16542 13.8808 8.00179 13.8808C6.83815 13.8808 4.33597 13.9689 3.28656 13.5759C2.58695 13.3117 2.04796 12.8002 1.76598 12.1329C1.34835 11.1336 1.44473 8.76229 1.44473 7.65796C1.44473 6.55363 1.35192 4.17898 1.76598 3.18305C2.04439 2.5191 2.58338 2.00758 3.28656 1.73997C4.33954 1.34363 6.83815 1.43509 8.00179 1.43509C9.16542 1.43509 11.6676 1.34702 12.717 1.73997C13.4166 2.00419 13.9556 2.51571 14.2376 3.18305C14.6552 4.18237 14.5588 6.55363 14.5588 7.65796C14.5588 8.76229 14.6552 11.1369 14.2376 12.1329Z" fill="white"/>
</svg>
