<svg width="19" height="15" viewBox="0 0 19 15" fill="none" xmlns="http://www.w3.org/2000/svg">
<path fill-rule="evenodd" clip-rule="evenodd" d="M8.90958 4.48815L8.86995 3.86986C8.75115 2.26742 9.79388 0.80375 11.4438 0.236002C12.051 0.0340968 13.0805 0.0088586 13.7537 0.185526C14.0177 0.26124 14.5193 0.513548 14.8756 0.740692L15.5224 1.15708L16.2352 0.942597C16.6312 0.828988 17.1592 0.639739 17.3967 0.513548C17.6211 0.400013 17.8191 0.336881 17.8191 0.374775C17.8191 0.589263 17.3307 1.3211 16.9216 1.72483C16.3672 2.29265 16.5256 2.34313 17.6475 1.96456C18.3207 1.75007 18.3338 1.75007 18.2019 1.9898C18.1226 2.11599 17.7135 2.55762 17.2779 2.96136C16.5387 3.65537 16.4992 3.73108 16.4992 4.31149C16.4992 5.20733 16.0504 7.07473 15.6016 8.09677C14.77 10.0146 12.9881 11.9956 11.2062 12.9924C8.69839 14.393 5.35891 14.7462 2.54748 13.9261C1.61034 13.6485 0 12.9419 0 12.8158C0 12.7779 0.488346 12.7274 1.08236 12.7148C2.32308 12.6896 3.5638 12.3615 4.61975 11.7811L5.33257 11.3774L4.51415 11.1124C3.35261 10.7338 2.30987 9.86322 2.04593 9.04309C1.96667 8.77812 1.99309 8.76547 2.73225 8.76547L3.49783 8.75289L2.85105 8.46268C2.08547 8.09677 1.38594 7.47847 1.04274 6.84759C0.79192 6.39338 0.475215 5.24515 0.5676 5.15685C0.59394 5.11903 0.871175 5.19467 1.18796 5.29563C2.09868 5.61107 2.21749 5.53535 1.68951 5.00542C0.699535 4.04652 0.39596 2.62068 0.871175 1.27062L1.09557 0.664976L1.96667 1.48511C3.74865 3.13802 5.84733 4.12224 8.24959 4.41244L8.90958 4.48815Z" fill="white"/>
</svg>
